<?xml version="1.0" encoding="UTF-8"?>
<svg id="a" xmlns="http://www.w3.org/2000/svg" viewBox="0 0 1256.85 647.22"><defs><style>.b{fill:#c01d2d;}</style></defs><rect class="b" x="776.91" y="115.92" width="90.54" height="50.31"/><path class="b" d="M498.85,530.92c-17.08,.09-34.05-2.61-50.26-8-15.25-5.03-29.66-12.33-42.74-21.64-12.61-9.02-23.7-19.99-32.86-32.49-9.01-12.11-15.57-25.85-19.33-40.47l112.66-44.46c1.4,5.95,4.14,11.51,8,16.25,3.86,4.75,9.11,7.13,15.74,7.12,8.46,0,14.17-2.94,17.12-8.83,2.95-5.89,4.43-13.39,4.42-22.52V115.96h132v254.22c-.05,18.77-2,37.48-5.8,55.86-3.69,18.59-11.11,36.23-21.81,51.87-10.67,15.59-25.39,28.32-44.18,38.19s-43.11,14.81-72.96,14.82Z"/><path class="b" d="M671.07,116.3h81.13v56.79h-81.13v-56.79Zm0,82.83h81.13v217.72h-81.13V199.13Z"/><path class="b" d="M157.76,263.59v-123h-42.7v-25h114.37v25h-42.61v123h-29.06Z"/><path class="b" d="M238.6,263.61V115.61h29.06v58.27h56.94v-58.3h29.06v148h-29.06v-64.69h-56.94v64.72h-29.06Z"/><path class="b" d="M362.83,263.57V115.57h106.71v25h-77.65v32.82h72.25v25h-72.25v40.29h80.4v24.94l-109.46-.05h0Z"/><path class="b" d="M861.39,423.65c-28.57,0-49.72-6.31-63.46-18.92s-20.61-32.22-20.62-58.83v-78.16h-29.91v-68.59h29.51v-49.06h90.54v49.06h46.08v68.59h-46.08v58.21c0,10.53,2.22,17.66,6.67,21.41s10.58,5.62,18.39,5.61c3.12-.01,6.23-.29,9.3-.83,2.59-.41,5.15-.96,7.67-1.66v65.68c-4.85,2.22-11.65,4.02-20.41,5.41-9.16,1.41-18.41,2.11-27.68,2.08h0Z"/><path class="b" d="M1141.29,417.75h-90.9v-24.12h-.81c-5.39,8.05-13.39,15.05-24,21s-22.81,8.93-36.58,8.94c-15.09,0-27.48-2.7-37.18-8.11-9.36-5.06-17.36-12.32-23.3-21.15-5.89-8.97-10.01-19-12.12-29.52-2.27-10.73-3.42-21.67-3.44-32.64V199.15h93.33v115.49c0,11.09,1.7,18.85,5.11,23.28s8.51,6.65,15.3,6.66c6.06,.1,11.78-2.77,15.31-7.7,3.94-5.12,5.91-12.53,5.91-22.24v-115.57h93.37v218.68Z"/></svg>